Format : AVI
Format/Info : Audio Video Interleave
Format profile : OpenDML
File size : 2.02 GiB
Duration : 2h 26mn
Overall bit rate : 1 977 Kbps
Writing application : VirtualDubMod 1.5.10.2 (build 2540/release)
Writing library : VirtualDubMod build 2540/release

Video
ID : 0
Format : MPEG-4 Visual
Format profile : Advanced Simple@L5
Format settings, BVOP : 1
Format settings, QPel : No
Format settings, GMC : No warppoints
Format settings, Matrix : Default (H.263)
Muxing mode : Packed bitstream
Codec ID : XVID
Codec ID/Hint : XviD
Duration : 2h 26mn
Bit rate : 1 580 Kbps
Width : 672 pixels
Height : 288 pixels
Display aspect ratio : 2.35:1
Frame rate : 23.976 fps
Color space : YUV
Chroma subsampling : 4:2:0
Bit depth : 8 bits
Scan type : Progressive
Compression mode : Lossy
Bits/(Pixel*Frame) : 0.341
Stream size : 1.62 GiB (80%)
Writing library : XviD 64

Audio
ID : 1
Format : AC-3
Format/Info : Audio Coding 3
Mode extension : CM (complete main)
Codec ID : 2000
Duration : 2h 26mn
Bit rate mode : Constant
Bit rate : 384 Kbps
Channel(s) : 6 channels
Channel positions : Front: L C R, Side: L R, LFE
Sampling rate : 48.0 KHz
Bit depth : 16 bits
Compression mode : Lossy
Stream size : 403 MiB (19%)
Alignment : Split accross interleaves
Interleave, duration : 42 ms (1.00 video frame)
Interleave, preload duration : 500 ms
 
http://www.imdb.com/title/tt1568911/

Ratings: 7.6/10 from 4,957 users Metascore: 72/100 
Reviews: 112 user | 110 critic | 39 from Metacritic.com

Young Albert enlists to service in WWI after his beloved horse, Joey, is sold to the cavalry. Albert's hopeful journey takes him out of England and across Europe as the war rages on.
Director:
Steven Spielberg
Writers:
Lee Hall (screenplay), Richard Curtis (screenplay), and 1 more credit »
Stars:
Jeremy Irvine, Emily Watson and David Thewlis 
 
http://img856.imageshack.us/img856/6044/vlcsnap2012010820h53m26.png 
http://img812.imageshack.us/img812/2254/vlcsnap2012010820h55m05.png 
http://img811.imageshack.us/img811/1795/vlcsnap2012010820h56m44.png

Source Used

CM8 X264 Thanks 

Why 2gb ? Quality release .....Thats why :bow:

Enjoy

Greetz to EMBER,ETRG,BHRG,26k,CreWSaDe,RemixHD,LEGiTiMATE.......and maybe many more 

